<svg width="64" height="64" viewBox="0 0 64 64" fill="none" xmlns="http://www.w3.org/2000/svg">
<path fill-rule="evenodd" clip-rule="evenodd" d="M12 8C10.9391 8 9.92172 8.42143 9.17157 9.17157C8.42143 9.92172 8 10.9391 8 12V52C8 53.0609 8.42143 54.0783 9.17157 54.8284C9.92172 55.5786 10.9391 56 12 56H52C53.0609 56 54.0783 55.5786 54.8284 54.8284C55.5786 54.0783 56 53.0609 56 52V12C56 10.9391 55.5786 9.92172 54.8284 9.17157C54.0783 8.42143 53.0609 8 52 8H12ZM42.6667 21.3333H38.6667V42.6667H42.6667V21.3333ZM45.3333 25.3333H49.3333V30.6667H50.6667V33.3333H49.3333V38.6667H45.3333V25.3333ZM21.3333 42.6667H25.3333V21.3333H21.3333V42.6667ZM18.6667 38.6667H14.6667V33.3333H13.3333V30.6667H14.6667V25.3333H18.6667V38.6667ZM28 33.3333H36V30.6667H28V33.3333Z" fill="#8C2703"/>
</svg>
